<mxfile host="app.diagrams.net" modified="2023-08-03T23:00:23.626Z" agent="Mozilla/5.0 (Windows NT 10.0; Win64; x64) AppleWebKit/537.36 (KHTML, like Gecko) Chrome/115.0.0.0 Safari/537.36" version="21.6.6" etag="jlqrcby-4Q_mv8E5-wnB" type="github">
  <diagram name="PÃ¡gina-1" id="Vang1ajrHNeAV-A1qved">
    <mxGraphModel>
      <root>
        <mxCell id="0" />
        <mxCell id="1" parent="0" />
      </root>
    </mxGraphModel>
  </diagram>
</mxfile>
